<?xml version="1.0" encoding="UTF-8" standalone="no"?><!-- Generator: Gravit.io --><svg xmlns="http://www.w3.org/2000/svg" xmlns:xlink="http://www.w3.org/1999/xlink" style="isolation:isolate" viewBox="0 0 75 74.968" width="75pt" height="74.968pt"><defs><clipPath id="_clipPath_WlMfPtnKPQcvEjXFV7l5ABuvnvopLgJG"><rect width="75" height="74.968"/></clipPath></defs><g clip-path="url(#_clipPath_WlMfPtnKPQcvEjXFV7l5ABuvnvopLgJG)"><path d=" M 37.5 62.473 C 51.298 62.473 62.5 51.276 62.5 37.484 C 62.5 23.692 51.298 12.495 37.5 12.495 L 37.5 12.495 L 37.5 12.495 L 37.5 12.495 L 9.558 12.495 L 0 12.495 L 0 0 L 37.5 0 C 37.5 0 37.5 0 37.5 0 L 37.5 0 C 58.197 0 75 16.796 75 37.484 C 75 58.172 58.197 74.968 37.5 74.968 L 37.5 74.968 C 37.5 74.968 37.5 74.968 37.5 74.968 L 7.239 74.968 L 7.239 62.473 L 9.558 62.473 L 37.5 62.473 L 37.5 62.473 Z  M 0 37.484 L 0 37.484 L 0 37.484 L 0 37.484 L 0 37.484 L 0 37.484 L 0 37.484 Z " fill-rule="evenodd" fill="rgb(0,128,255)"/><path d=" M 14.083 74.965 L 14.088 74.968 L 50.277 12.315 L 39.707 6.215 L 7.042 62.768 L 7.041 62.767 L 5.28 65.818 L 3.518 68.868 L 3.52 68.868 L 0 74.967 L 7.043 74.966 L 14.083 74.965 Z " fill-rule="evenodd" fill="rgb(0,128,255)"/></g></svg>