<?xml version="1.0" encoding="UTF-8" standalone="no"?><!-- Generator: Gravit.io --><svg xmlns="http://www.w3.org/2000/svg" xmlns:xlink="http://www.w3.org/1999/xlink" style="isolation:isolate" viewBox="0 0 640 640" width="640pt" height="640pt"><defs><clipPath id="_clipPath_l0aenNHTYhZ3KQgUSiLwV5ifxZwgGW0T"><rect width="640" height="640"/></clipPath></defs><g clip-path="url(#_clipPath_l0aenNHTYhZ3KQgUSiLwV5ifxZwgGW0T)"><rect width="640" height="640" style="fill:rgb(0,0,0)" fill-opacity="0"/><path d=" M 103.68 614.4 L 103.68 614.4 L 103.68 614.4 L 103.68 614.4 L 103.68 614.4 L 103.68 614.4 C 103.68 628.529 115.151 640 129.28 640 L 129.28 640 L 320 640 C 496.613 640 640 496.613 640 320 C 640 143.387 496.613 0 320 0 L 25.6 0 L 25.6 0 L 25.6 0 L 25.6 0 C 11.471 0 0 11.471 0 25.6 L 0 25.6 L 0 25.6 L 0 25.6 L 0 25.6 C 0 39.729 11.471 51.2 25.6 51.2 L 25.6 51.2 L 320 51.2 L 320 588.8 L 154.88 588.8 L 154.88 588.8 L 154.88 371.2 L 230.4 371.2 L 230.4 371.073 L 230.4 371.073 C 231.242 371.157 232.096 371.2 232.96 371.2 C 247.089 371.2 258.56 359.729 258.56 345.6 C 258.56 331.471 247.089 320 232.96 320 C 232.096 320 231.242 320.043 230.4 320.127 L 230.4 320 L 154.88 320 L 103.68 320 L 25.6 320 L 25.6 320 L 25.6 320 L 25.6 320 C 11.471 320 0 331.471 0 345.6 L 0 345.6 L 0 345.6 L 0 345.6 L 0 345.6 C 0 359.729 11.471 371.2 25.6 371.2 L 25.6 371.2 L 103.68 371.2 L 103.68 614.4 Z  M 320.051 51.2 C 355.942 51.174 391.475 58.342 424.55 72.32 C 456.499 85.862 485.504 105.446 510.029 129.971 C 534.554 154.496 554.138 183.501 567.68 215.45 C 581.658 248.525 588.826 284.083 588.8 320 C 588.826 355.917 581.658 391.475 567.68 424.55 C 554.138 456.499 534.554 485.504 510.029 510.029 C 485.504 534.554 456.499 554.138 424.55 567.68 C 391.475 581.658 355.942 588.826 320.051 588.8 L 320.051 51.2 L 320.051 51.2 L 320.051 51.2 L 320.051 51.2 L 320.051 51.2 L 320.051 51.2 L 320.051 51.2 L 320.051 51.2 L 320.051 51.2 Z " fill-rule="evenodd" fill="rgb(0,0,0)"/><path d=" M 25.6 160 L 230.4 160 L 230.4 211.2 L 25.6 211.2 L 25.6 160 Z " fill="rgb(0,0,0)"/><path d=" M 0 185.6 C 0 171.471 11.471 160 25.6 160 C 39.729 160 51.2 171.471 51.2 185.6 C 51.2 199.729 39.729 211.2 25.6 211.2 C 11.471 211.2 0 199.729 0 185.6 Z " fill="rgb(0,0,0)"/><path d=" M 204.8 185.6 C 204.8 171.471 216.271 160 230.4 160 C 244.529 160 256 171.471 256 185.6 C 256 199.729 244.529 211.2 230.4 211.2 C 216.271 211.2 204.8 199.729 204.8 185.6 Z " fill="rgb(0,0,0)"/></g></svg>